<?xml version="1.0" encoding="utf-8"?>
<!-- Svg Vector Icons : http://www.onlinewebfonts.com/icon -->
<!DOCTYPE svg PUBLIC "-//W3C//DTD SVG 1.1//EN" "http://www.w3.org/Graphics/SVG/1.1/DTD/svg11.dtd">
<svg version="1.1" xmlns="http://www.w3.org/2000/svg" xmlns:xlink="http://www.w3.org/1999/xlink" x="0px" y="0px" viewBox="0 0 1000 1000" enable-background="new 0 0 1000 1000" xml:space="preserve">
<metadata> Svg Vector Icons : http://www.onlinewebfonts.com/icon </metadata>
<g><g transform="translate(0.000000,511.000000) scale(0.100000,-0.100000)"><path d="M5181.6,4656.1c-264.3-97.7-256.6-97.7-392.6-30.6c-195.3,97.7-337.1,82.3-699-80.4c-201.1-90-289.2-101.5-417.5-59.4c-189.6,65.1-354.3,28.7-572.6-120.6c-143.6-97.7-239.4-137.9-331.3-137.9c-47.9,0-114.9-11.5-149.4-26.8c-57.5-23-243.2-208.7-243.2-241.3c0-21.1-243.2-118.7-469.2-189.6c-224.1-68.9-296.8-120.7-425.2-304.5c-114.9-166.6-206.8-262.4-304.5-319.8c-147.5-86.2-285.3-270-352.4-467.3c-47.9-145.5-47.9-241.3,0-337.1c21.1-42.1,38.3-86.2,38.3-101.5c0-13.4-44-107.3-95.8-206.8c-116.8-224.1-122.6-291.1-34.5-379.2c34.5-32.6,82.3-72.8,107.2-88.1c40.2-26.8,42.1-32.6,21.1-151.3c-17.2-90-17.2-139.8,0-195.3c26.8-86.2,132.1-180,237.5-212.6c65.1-19.2,82.4-38.3,134.1-147.5c76.6-158.9,118.7-180,348.5-185.8c132.1-3.8,203-15.3,302.6-53.6c153.2-59.4,227.9-61.3,365.8-13.4l103.4,36.4l55.5-61.3c70.8-76.6,105.3-134.1,147.5-245.1c51.7-132.1,103.4-172.4,243.2-185.8c109.2-11.5,118.7-15.3,168.5-88.1C3046.3-55,3111.4-83.8,3348.9-99.1c195.3-13.4,212.6-17.2,358.1-99.6c139.8-76.6,164.7-84.3,277.7-82.3c68.9,0,155.1,15.3,193.4,30.6c93.8,40.2,203,141.7,247,227.9C4478.8,79,4519,115.4,4551.6,88.6c13.4-11.5,59.4-130.2,101.5-264.3c97.7-306.4,147.5-379.2,319.8-461.5c296.9-139.8,494.1-316,812-727.7c139.8-180,273.9-365.8,298.8-411.7c93.8-164.7,231.7-258.5,383-258.5c162.8,0,275.8,114.9,291.1,296.8c9.6,120.6-67,402.2-124.5,453.9c-19.2,17.2-80.4,72.8-137.9,124.5l-101.5,93.8l109.2,90c67,53.6,128.3,90,157,90c26.8,0,128.3-26.8,224.1-61.3c145.5-49.8,203-59.4,346.6-59.4c183.8,0,348.6,34.5,513.2,109.1c260.5,114.9,568.8,538.2,568.8,779.5v51.7l72.8-38.3c101.5-53.6,231.7-38.3,325.6,36.4c101.5,82.4,197.3,275.8,208.8,430.9c9.6,111.1,15.3,124.5,61.3,145.5c72.8,32.6,174.3,136,204.9,208.8c61.3,141.7,17.2,344.7-84.2,396.4c-88.1,46-93.8,109.2-13.4,214.5c38.3,49.8,67,109.2,67,137.9c0,74.7-63.2,166.6-151.3,226l-78.5,49.8l40.2,57.5c23,30.6,44.1,90,49.8,132.1c11.5,74.7,7.6,80.4-107.3,185.8l-116.8,109.2v113c0,113,0,114.9-105.3,216.4c-65.1,63.2-105.3,118.7-105.3,145.5c0,159-90,272-270,339l-109.2,42.1v78.5c1.9,114.9-46,193.4-143.6,241.3c-46,23-95.8,40.2-113,40.2c-15.3,0-55.5,9.6-86.2,21.1c-45.9,15.3-61.3,32.6-68.9,86.2c-23,143.6-208.7,302.6-379.2,325.6c-76.6,9.6-93.8,21.1-114.9,67c-44.1,107.3-203,208.8-329.4,208.8c-65.1,0-159,51.7-272,151.3c-63.2,55.5-178.1,132.1-256.6,170.4c-139.8,68.9-149.4,70.9-411.7,80.4c-241.3,7.6-275.8,13.4-331.3,53.6C5541.7,4715.5,5384.6,4730.8,5181.6,4656.1z"/><path d="M1715.3-1698.2c-21.1-15.3-149.4-181.9-287.3-373.4l-249-346.6H669.7c-469.2,0-511.3-1.9-540.1-34.5c-42.1-47.9-40.2-65.1,11.5-114.9c44.1-40.2,57.5-42.1,555.4-42.1c327.5,0,524.7,7.6,553.5,21.1c24.9,11.5,130.2,141.7,235.6,289.2c105.3,145.5,199.2,273.9,210.7,283.4c15.3,13.4,44-130.2,101.5-484.5c67-430.9,84.3-505.6,118.7-534.3c72.8-57.5,113-13.4,325.6,348.6c109.2,189.6,204.9,337.1,212.6,329.4c5.7-7.7,59.4-149.4,120.6-314.1c61.3-164.7,126.4-314.1,147.5-333.2c63.2-57.5,116.8-11.5,237.5,201.1l107.2,193.4h520.9c287.3,0,540.1,5.7,561.1,11.5c24.9,5.7,124.5,126.4,247,296.8c113,157,212.6,289.2,220.2,294.9c7.7,5.7,42.1-170.4,76.6-388.8c86.2-547.7,101.5-620.5,136-641.6c78.5-47.9,116.8-5.7,323.6,348.5c111.1,189.6,206.8,339,212.6,331.3c5.7-7.7,61.3-149.4,122.6-314.1c61.3-166.6,128.3-317.9,147.5-335.1c61.3-55.5,122.6-1.9,239.4,210.7l105.3,185.8h616.7c494.1,0,622.4,5.7,653,26.8c21.1,13.4,128.3,151.3,239.4,306.4c109.2,153.2,204.9,272,212.6,264.3c5.8-7.7,44.1-227.9,84.3-492.2c74.7-494.1,91.9-545.8,172.4-545.8c57.5,0,74.7,23,285.4,386.9c103.4,178.1,189.6,321.7,191.5,321.7c3.8,0,59.4-145.6,124.5-323.7c168.5-453.9,206.8-467.3,386.8-137.9l103.4,193.4h384.9c377.3,0,384.9,0,425.1,44c51.7,53.6,51.7,74.7,7.7,114.9c-30.7,28.7-91.9,32.6-459.6,32.6c-486.4,0-452,11.5-559.2-189.6c-42.1-80.4-68.9-111.1-78.5-93.8c-7.7,13.4-61.3,155.1-120.7,312.2c-61.3,162.8-124.5,300.7-147.5,319.8c-69,57.5-113,13.4-302.6-312.2c-97.7-166.6-183.8-304.5-191.5-304.5c-7.6,0-45.9,216.4-88.1,478.8c-105.3,683.7-109.2,683.7-492.2,153.2l-254.7-354.3l-632-5.7c-708.6-5.8-664.5,3.8-746.9-157c-90-174.3-90-174.3-160.9,23c-149.4,411.7-174.3,469.2-220.2,490.3c-34.5,15.3-53.6,13.4-82.4-5.7c-21.1-15.3-118.7-164.7-216.4-335.1c-97.7-168.5-180-304.5-183.8-300.7c-3.8,3.8-42.1,220.2-82.3,482.6c-63.2,386.8-84.3,482.6-114.9,513.2c-32.6,32.6-46,36.4-84.3,19.2c-24.9-11.5-160.9-181.9-300.7-377.3L4092-2418.2h-547.7c-409.8,0-555.4-5.7-578.4-23c-15.3-13.4-61.3-84.3-99.6-155.1c-40.2-72.8-74.7-128.3-78.5-124.5s-55.5,139.8-114.9,302.6c-120.6,331.3-172.4,406-247,358.1c-21.1-15.3-122.6-166.6-222.2-335.1c-99.6-170.4-183.8-304.5-187.7-302.6c-3.8,3.8-40.2,220.2-82.4,482.6C1847.5-1675.2,1824.5-1619.6,1715.3-1698.2z"/><path d="M2849.1-3555.8c-23-24.9-107.2-136-185.8-249l-143.6-203h-337.1c-302.6,0-340.9-3.8-367.7-34.5c-42.1-46-40.2-67,1.9-105.3c30.6-28.7,88.1-32.6,398.3-32.6H2579l49.8,53.6c26.8,28.7,88.1,111.1,139.8,181.9c49.8,70.9,93.8,126.4,99.6,120.6c3.8-3.8,30.6-139.8,55.5-302.6c34.5-208.7,57.5-302.6,82.3-327.5c59.4-59.4,114.9-11.5,241.3,208.7c61.3,109.2,118.7,199.2,124.5,199.2s40.2-82.4,76.6-181.9c36.4-101.5,80.4-197.3,99.6-214.5c53.6-47.9,113-3.8,189.6,139.8l65.1,120.7l373.4,5.7l373.4,5.7l132.1,178.1c72.8,97.7,134.1,174.3,137.9,170.4c3.8-3.8,28.7-137.9,53.6-300.7c36.4-224.1,57.5-302.6,86.2-331.3c34.5-36.4,40.2-36.4,84.3-7.7c24.9,15.3,95.8,116.8,157,224.1s116.8,187.7,124.5,178.1c7.7-7.6,42.1-90,76.6-181.9c34.5-91.9,76.6-180,95.8-197.2c53.6-47.9,114.9-5.7,189.6,134.1l67,124.5h417.5c478.8,0,425.2-21.1,589.8,216.4c57.5,82.3,109.2,141.7,116.8,134.1c5.8-9.6,32.6-147.5,55.5-308.3c47.9-310.3,72.8-363.9,153.2-339c23,7.7,84.3,90,155.1,212.6c65.1,109.2,124.5,203,132.1,208.8s44-70.9,78.5-166.6c59.4-166.6,109.2-245.1,151.3-245.1c32.6,0,101.5,82.4,157,187.7l53.6,99.6h254.7c224.1,0,260.5,3.8,287.3,34.5c42.1,46,40.2,67-1.9,105.3c-30.6,26.8-82.3,32.6-325.6,32.6c-314.1,0-317.9-1.9-379.2-120.7l-32.6-59.4l-69,185.8c-38.3,101.5-84.3,199.2-101.5,216.4c-57.5,57.5-114.9,9.6-226-185.8c-118.7-204.9-113-210.7-162.8,126.4c-42.1,283.4-68.9,344.7-139.8,325.6c-28.7-7.7-55.5-19.2-61.3-26.8c-5.7-7.6-82.3-114.9-170.4-237.5l-162.8-224.1h-413.7c-448.1,0-446.2,0-513.2-111.1l-38.3-63.2l-55.5,149.4c-32.5,82.3-63.2,168.5-70.8,193.4c-17.2,51.7-76.6,86.2-124.5,70.9c-17.2-5.7-80.4-91.9-137.9-191.5s-109.2-181.9-114.9-181.9s-30.7,128.3-55.6,287.3c-67,436.6-101.5,446.2-361.9,86.2l-168.5-229.8l-381.1-11.5c-208.7-5.8-383-11.5-384.9-13.4c-3.8-1.9-23-38.3-44-80.4c-21.1-42.1-42.1-76.6-46-76.6c-3.8,0-34.5,78.5-68.9,174.3c-114.9,314.1-162.8,319.8-329.4,38.3c-55.5-95.8-105.3-166.6-113-158.9c-5.7,7.7-30.6,134.1-53.6,279.6C2996.5-3513.7,2950.6-3446.6,2849.1-3555.8z"/></g></g>
</svg>