<?xml version="1.0" encoding="UTF-8" standalone="no"?>
<!-- Svg Vector Icons : http://www.onlinewebfonts.com/icon -->

<svg
   version="1.1"
   x="0px"
   y="0px"
   viewBox="0 0 1000 1000"
   enable-background="new 0 0 1000 1000"
   xml:space="preserve"
   id="svg14"
   sodipodi:docname="eeg-icon.svg"
   inkscape:version="1.1 (c68e22c387, 2021-05-23)"
   xmlns:inkscape="http://www.inkscape.org/namespaces/inkscape"
   xmlns:sodipodi="http://sodipodi.sourceforge.net/DTD/sodipodi-0.dtd"
   xmlns="http://www.w3.org/2000/svg"
   xmlns:svg="http://www.w3.org/2000/svg"><defs
   id="defs18" /><sodipodi:namedview
   id="namedview16"
   pagecolor="#ffffff"
   bordercolor="#666666"
   borderopacity="1.0"
   inkscape:pageshadow="2"
   inkscape:pageopacity="0.0"
   inkscape:pagecheckerboard="0"
   showgrid="false"
   inkscape:zoom="0.823"
   inkscape:cx="500"
   inkscape:cy="500.60753"
   inkscape:window-width="1920"
   inkscape:window-height="1009"
   inkscape:window-x="-8"
   inkscape:window-y="-8"
   inkscape:window-maximized="1"
   inkscape:current-layer="g12" />
<metadata
   id="metadata2"> Svg Vector Icons : http://www.onlinewebfonts.com/icon </metadata>
<g
   id="g12"><g
     transform="translate(0.000000,511.000000) scale(0.100000,-0.100000)"
     id="g10"><path
       d="M5181.6,4656.1c-264.3-97.7-256.6-97.7-392.6-30.6c-195.3,97.7-337.1,82.3-699-80.4c-201.1-90-289.2-101.5-417.5-59.4c-189.6,65.1-354.3,28.7-572.6-120.6c-143.6-97.7-239.4-137.9-331.3-137.9c-47.9,0-114.9-11.5-149.4-26.8c-57.5-23-243.2-208.7-243.2-241.3c0-21.1-243.2-118.7-469.2-189.6c-224.1-68.9-296.8-120.7-425.2-304.5c-114.9-166.6-206.8-262.4-304.5-319.8c-147.5-86.2-285.3-270-352.4-467.3c-47.9-145.5-47.9-241.3,0-337.1c21.1-42.1,38.3-86.2,38.3-101.5c0-13.4-44-107.3-95.8-206.8c-116.8-224.1-122.6-291.1-34.5-379.2c34.5-32.6,82.3-72.8,107.2-88.1c40.2-26.8,42.1-32.6,21.1-151.3c-17.2-90-17.2-139.8,0-195.3c26.8-86.2,132.1-180,237.5-212.6c65.1-19.2,82.4-38.3,134.1-147.5c76.6-158.9,118.7-180,348.5-185.8c132.1-3.8,203-15.3,302.6-53.6c153.2-59.4,227.9-61.3,365.8-13.4l103.4,36.4l55.5-61.3c70.8-76.6,105.3-134.1,147.5-245.1c51.7-132.1,103.4-172.4,243.2-185.8c109.2-11.5,118.7-15.3,168.5-88.1C3046.3-55,3111.4-83.8,3348.9-99.1c195.3-13.4,212.6-17.2,358.1-99.6c139.8-76.6,164.7-84.3,277.7-82.3c68.9,0,155.1,15.3,193.4,30.6c93.8,40.2,203,141.7,247,227.9C4478.8,79,4519,115.4,4551.6,88.6c13.4-11.5,59.4-130.2,101.5-264.3c97.7-306.4,147.5-379.2,319.8-461.5c296.9-139.8,494.1-316,812-727.7c139.8-180,273.9-365.8,298.8-411.7c93.8-164.7,231.7-258.5,383-258.5c162.8,0,275.8,114.9,291.1,296.8c9.6,120.6-67,402.2-124.5,453.9c-19.2,17.2-80.4,72.8-137.9,124.5l-101.5,93.8l109.2,90c67,53.6,128.3,90,157,90c26.8,0,128.3-26.8,224.1-61.3c145.5-49.8,203-59.4,346.6-59.4c183.8,0,348.6,34.5,513.2,109.1c260.5,114.9,568.8,538.2,568.8,779.5v51.7l72.8-38.3c101.5-53.6,231.7-38.3,325.6,36.4c101.5,82.4,197.3,275.8,208.8,430.9c9.6,111.1,15.3,124.5,61.3,145.5c72.8,32.6,174.3,136,204.9,208.8c61.3,141.7,17.2,344.7-84.2,396.4c-88.1,46-93.8,109.2-13.4,214.5c38.3,49.8,67,109.2,67,137.9c0,74.7-63.2,166.6-151.3,226l-78.5,49.8l40.2,57.5c23,30.6,44.1,90,49.8,132.1c11.5,74.7,7.6,80.4-107.3,185.8l-116.8,109.2v113c0,113,0,114.9-105.3,216.4c-65.1,63.2-105.3,118.7-105.3,145.5c0,159-90,272-270,339l-109.2,42.1v78.5c1.9,114.9-46,193.4-143.6,241.3c-46,23-95.8,40.2-113,40.2c-15.3,0-55.5,9.6-86.2,21.1c-45.9,15.3-61.3,32.6-68.9,86.2c-23,143.6-208.7,302.6-379.2,325.6c-76.6,9.6-93.8,21.1-114.9,67c-44.1,107.3-203,208.8-329.4,208.8c-65.1,0-159,51.7-272,151.3c-63.2,55.5-178.1,132.1-256.6,170.4c-139.8,68.9-149.4,70.9-411.7,80.4c-241.3,7.6-275.8,13.4-331.3,53.6C5541.7,4715.5,5384.6,4730.8,5181.6,4656.1z"
       id="path4" /><path
       d="M1715.3-1698.2c-21.1-15.3-149.4-181.9-287.3-373.4l-249-346.6H669.7c-469.2,0-511.3-1.9-540.1-34.5c-42.1-47.9-40.2-65.1,11.5-114.9c44.1-40.2,57.5-42.1,555.4-42.1c327.5,0,524.7,7.6,553.5,21.1c24.9,11.5,130.2,141.7,235.6,289.2c105.3,145.5,199.2,273.9,210.7,283.4c15.3,13.4,44-130.2,101.5-484.5c67-430.9,84.3-505.6,118.7-534.3c72.8-57.5,113-13.4,325.6,348.6c109.2,189.6,204.9,337.1,212.6,329.4c5.7-7.7,59.4-149.4,120.6-314.1c61.3-164.7,126.4-314.1,147.5-333.2c63.2-57.5,116.8-11.5,237.5,201.1l107.2,193.4h520.9c287.3,0,540.1,5.7,561.1,11.5c24.9,5.7,124.5,126.4,247,296.8c113,157,212.6,289.2,220.2,294.9c7.7,5.7,42.1-170.4,76.6-388.8c86.2-547.7,101.5-620.5,136-641.6c78.5-47.9,116.8-5.7,323.6,348.5c111.1,189.6,206.8,339,212.6,331.3c5.7-7.7,61.3-149.4,122.6-314.1c61.3-166.6,128.3-317.9,147.5-335.1c61.3-55.5,122.6-1.9,239.4,210.7l105.3,185.8h616.7c494.1,0,622.4,5.7,653,26.8c21.1,13.4,128.3,151.3,239.4,306.4c109.2,153.2,204.9,272,212.6,264.3c5.8-7.7,44.1-227.9,84.3-492.2c74.7-494.1,91.9-545.8,172.4-545.8c57.5,0,74.7,23,285.4,386.9c103.4,178.1,189.6,321.7,191.5,321.7c3.8,0,59.4-145.6,124.5-323.7c168.5-453.9,206.8-467.3,386.8-137.9l103.4,193.4h384.9c377.3,0,384.9,0,425.1,44c51.7,53.6,51.7,74.7,7.7,114.9c-30.7,28.7-91.9,32.6-459.6,32.6c-486.4,0-452,11.5-559.2-189.6c-42.1-80.4-68.9-111.1-78.5-93.8c-7.7,13.4-61.3,155.1-120.7,312.2c-61.3,162.8-124.5,300.7-147.5,319.8c-69,57.5-113,13.4-302.6-312.2c-97.7-166.6-183.8-304.5-191.5-304.5c-7.6,0-45.9,216.4-88.1,478.8c-105.3,683.7-109.2,683.7-492.2,153.2l-254.7-354.3l-632-5.7c-708.6-5.8-664.5,3.8-746.9-157c-90-174.3-90-174.3-160.9,23c-149.4,411.7-174.3,469.2-220.2,490.3c-34.5,15.3-53.6,13.4-82.4-5.7c-21.1-15.3-118.7-164.7-216.4-335.1c-97.7-168.5-180-304.5-183.8-300.7c-3.8,3.8-42.1,220.2-82.3,482.6c-63.2,386.8-84.3,482.6-114.9,513.2c-32.6,32.6-46,36.4-84.3,19.2c-24.9-11.5-160.9-181.9-300.7-377.3L4092-2418.2h-547.7c-409.8,0-555.4-5.7-578.4-23c-15.3-13.4-61.3-84.3-99.6-155.1c-40.2-72.8-74.7-128.3-78.5-124.5s-55.5,139.8-114.9,302.6c-120.6,331.3-172.4,406-247,358.1c-21.1-15.3-122.6-166.6-222.2-335.1c-99.6-170.4-183.8-304.5-187.7-302.6c-3.8,3.8-40.2,220.2-82.4,482.6C1847.5-1675.2,1824.5-1619.6,1715.3-1698.2z"
       id="path6" /><path
       d="M2849.1-3555.8c-23-24.9-107.2-136-185.8-249l-143.6-203h-337.1c-302.6,0-340.9-3.8-367.7-34.5c-42.1-46-40.2-67,1.9-105.3c30.6-28.7,88.1-32.6,398.3-32.6H2579l49.8,53.6c26.8,28.7,88.1,111.1,139.8,181.9c49.8,70.9,93.8,126.4,99.6,120.6c3.8-3.8,30.6-139.8,55.5-302.6c34.5-208.7,57.5-302.6,82.3-327.5c59.4-59.4,114.9-11.5,241.3,208.7c61.3,109.2,118.7,199.2,124.5,199.2s40.2-82.4,76.6-181.9c36.4-101.5,80.4-197.3,99.6-214.5c53.6-47.9,113-3.8,189.6,139.8l65.1,120.7l373.4,5.7l373.4,5.7l132.1,178.1c72.8,97.7,134.1,174.3,137.9,170.4c3.8-3.8,28.7-137.9,53.6-300.7c36.4-224.1,57.5-302.6,86.2-331.3c34.5-36.4,40.2-36.4,84.3-7.7c24.9,15.3,95.8,116.8,157,224.1s116.8,187.7,124.5,178.1c7.7-7.6,42.1-90,76.6-181.9c34.5-91.9,76.6-180,95.8-197.2c53.6-47.9,114.9-5.7,189.6,134.1l67,124.5h417.5c478.8,0,425.2-21.1,589.8,216.4c57.5,82.3,109.2,141.7,116.8,134.1c5.8-9.6,32.6-147.5,55.5-308.3c47.9-310.3,72.8-363.9,153.2-339c23,7.7,84.3,90,155.1,212.6c65.1,109.2,124.5,203,132.1,208.8s44-70.9,78.5-166.6c59.4-166.6,109.2-245.1,151.3-245.1c32.6,0,101.5,82.4,157,187.7l53.6,99.6h254.7c224.1,0,260.5,3.8,287.3,34.5c42.1,46,40.2,67-1.9,105.3c-30.6,26.8-82.3,32.6-325.6,32.6c-314.1,0-317.9-1.9-379.2-120.7l-32.6-59.4l-69,185.8c-38.3,101.5-84.3,199.2-101.5,216.4c-57.5,57.5-114.9,9.6-226-185.8c-118.7-204.9-113-210.7-162.8,126.4c-42.1,283.4-68.9,344.7-139.8,325.6c-28.7-7.7-55.5-19.2-61.3-26.8c-5.7-7.6-82.3-114.9-170.4-237.5l-162.8-224.1h-413.7c-448.1,0-446.2,0-513.2-111.1l-38.3-63.2l-55.5,149.4c-32.5,82.3-63.2,168.5-70.8,193.4c-17.2,51.7-76.6,86.2-124.5,70.9c-17.2-5.7-80.4-91.9-137.9-191.5s-109.2-181.9-114.9-181.9s-30.7,128.3-55.6,287.3c-67,436.6-101.5,446.2-361.9,86.2l-168.5-229.8l-381.1-11.5c-208.7-5.8-383-11.5-384.9-13.4c-3.8-1.9-23-38.3-44-80.4c-21.1-42.1-42.1-76.6-46-76.6c-3.8,0-34.5,78.5-68.9,174.3c-114.9,314.1-162.8,319.8-329.4,38.3c-55.5-95.8-105.3-166.6-113-158.9c-5.7,7.7-30.6,134.1-53.6,279.6C2996.5-3513.7,2950.6-3446.6,2849.1-3555.8z"
       id="path8" /></g><path
     style="fill:#a0a0a0;stroke:none;stroke-width:1.21507"
     d="m 640.12928,713.17147 c -12.05274,-2.33841 -20.59443,-9.35525 -32.04577,-26.32499 -13.0818,-19.38596 -35.62259,-48.79403 -50.08183,-65.3398 -19.27936,-22.06144 -33.25209,-33.32266 -56.12655,-45.23475 -14.21176,-7.40092 -21.94513,-13.90735 -26.01739,-21.88965 -1.34117,-2.6289 -5.5045,-13.67837 -9.25182,-24.55436 -8.24717,-23.93598 -10.29875,-28.45302 -13.17453,-29.00685 -3.08698,-0.5945 -5.99179,2.37865 -11.68222,11.95706 -5.79657,9.75706 -13.93579,17.36942 -23.12177,21.62502 -5.31806,2.46372 -9.08117,3.18244 -18.83354,3.59707 l -12.18754,0.51816 -16.10276,-8.14308 -16.10277,-8.14309 -17.9191,-1.70385 c -23.55376,-2.23962 -29.0282,-3.88672 -35.21054,-10.59377 -2.67879,-2.90615 -5.80678,-6.71277 -6.95105,-8.45916 -2.32541,-3.54904 -6.58814,-5.17712 -16.46963,-6.29033 -12.32339,-1.38831 -15.35488,-4.08193 -24.29397,-21.58629 -4.39541,-8.607 -10.32276,-18.16875 -13.36573,-21.56103 l -5.46781,-6.09547 -11.23942,3.63881 c -6.18169,2.00135 -13.43664,3.63881 -16.12211,3.63881 -2.68546,0 -10.94758,-1.96066 -18.36025,-4.35701 -11.11205,-3.59229 -16.38642,-4.56009 -30.05044,-5.51396 -9.11507,-0.63632 -18.57333,-1.69059 -21.01836,-2.3428 -5.53116,-1.47547 -10.70987,-7.24211 -16.09069,-17.91748 -4.72704,-9.37829 -6.5683,-11.21214 -14.09321,-14.03654 -9.194097,-3.45092 -16.385187,-9.59655 -20.090301,-17.16954 -3.491912,-7.13721 -3.63775,-11.01258 -1.082315,-28.76025 0.746341,-5.18339 0.531118,-5.88643 -2.603858,-8.50547 -14.853632,-12.40914 -18.085521,-17.09817 -16.780984,-24.3469 0.398356,-2.2135 4.765935,-12.49963 9.705731,-22.85807 4.939796,-10.35845 8.98124,-19.4757 8.980987,-20.26056 -2.54e-4,-0.78486 -1.640802,-5.52359 -3.645662,-10.53049 -5.614044,-14.0204 -4.459477,-24.77194 4.718074,-43.93556 7.953931,-16.60858 16.355438,-26.24552 32.341468,-37.0972 8.88463,-6.03109 15.85796,-13.42897 27.53936,-29.21605 10.25257,-13.85604 17.24111,-20.75039 25.05805,-24.72033 2.19711,-1.11583 12.62797,-4.99464 23.17971,-8.61957 10.55172,-3.62494 23.86017,-8.54787 29.5743,-10.93986 9.17461,-3.84057 11.02029,-5.16154 15.78565,-11.29796 6.21308,-8.00068 17.17398,-17.737914 22.05672,-19.594324 1.84212,-0.700375 7.97136,-1.798601 13.62052,-2.440504 12.18885,-1.384992 17.03497,-3.385794 34.01011,-14.041627 23.64612,-14.843434 35.79994,-17.31914 56.88956,-11.588284 9.54075,2.592589 11.64316,2.779691 18.34156,1.632303 4.16108,-0.712763 12.43463,-3.321753 18.38565,-5.797755 44.06929,-18.335607 52.77035,-19.468649 74.26932,-9.671258 5.16335,2.353018 11.11207,4.170059 13.65215,4.170059 2.47587,0 11.71317,-2.493187 20.52736,-5.540417 25.59509,-8.848702 36.7112,-8.561383 53.0395,1.370916 8.50253,5.171984 13.25644,6.007022 43.46305,7.634407 l 20.37678,1.0978 12.43003,6.200205 c 7.55269,3.767348 17.66393,10.306069 25.76881,16.664127 16.20716,12.71409 17.58051,13.448757 29.34996,15.700625 14.7901,2.829811 24.36795,8.828757 30.29273,18.973397 3.5123,6.01389 6.05435,7.59112 14.50333,8.99867 16.11751,2.68509 33.29367,18.30812 36.42732,33.13342 1.04563,4.94695 3.94771,6.90357 14.01452,9.44881 10.8474,2.7426 19.17119,7.49404 22.83968,13.03751 2.43808,3.68418 3.18348,6.60557 3.6231,14.19974 0.52668,9.09813 0.7071,9.59982 3.72451,10.35715 6.74905,1.6939 20.42262,8.95309 24.57261,13.0454 5.03966,4.96963 8.32704,11.30699 9.17972,17.69658 0.32988,2.47193 0.83932,5.68941 1.13209,7.14997 0.29277,1.46056 4.82552,7.28961 10.07277,12.95346 10.29303,11.11025 11.06914,12.96907 11.09532,26.5739 l 0.0134,6.946 10.9356,10.54194 c 10.42906,10.05366 10.9356,10.78311 10.9356,15.74823 0,3.59149 -1.32651,7.75121 -4.27682,13.41144 -2.35224,4.51283 -3.85589,8.55849 -3.34143,8.99037 0.51446,0.43185 3.76572,2.81087 7.22503,5.28669 3.45931,2.47581 7.97024,7.03871 10.0243,10.13977 5.08028,7.66983 4.93229,12.51176 -0.66318,21.69655 -9.35069,15.34888 -9.47029,19.05781 -0.80671,25.01852 7.55282,5.19647 11.25614,13.33201 11.25614,24.72774 0,6.38878 -0.70967,10.01737 -2.85169,14.5808 -2.99777,6.38655 -13.46202,17.16618 -19.89145,20.49097 -4.33164,2.23998 -4.678,3.05518 -6.34758,14.93917 -2.37751,16.92303 -9.96784,32.55781 -20.16265,41.53164 -9.15344,8.05719 -20.7204,9.66314 -31.94926,4.43582 -3.57484,-1.66419 -6.91736,-3.02579 -7.4278,-3.02579 -0.51042,0 -1.21237,3.41737 -1.55985,7.59417 -1.35891,16.33403 -14.45282,39.1547 -32.95672,57.43845 -16.12707,15.93523 -33.49837,24.05298 -58.64637,27.40595 -17.39174,2.31882 -31.26065,0.94736 -49.58161,-4.90299 -22.98194,-7.33873 -24.07247,-7.38635 -32.8783,-1.43574 -4.00972,2.7096 -9.6713,7.0045 -12.58129,9.54421 l -5.29089,4.61767 12.82978,11.47661 c 10.31316,9.22541 13.429,12.8118 15.88451,18.28342 4.10417,9.14531 7.97247,25.75181 7.98291,34.27046 0.0256,20.92307 -15.64149,34.98399 -34.83183,31.26079 z"
     id="path57" /><path
     style="fill:#a0a0a0;stroke:none;stroke-width:1.21507"
     d="m 192.07964,813.41273 c -3.04321,-3.04319 -5.10903,-12.21916 -11.60926,-51.56583 -6.6307,-40.13641 -8.45673,-48.79751 -10.42386,-49.44136 -0.70284,-0.23005 -6.95755,7.38278 -13.89935,16.91738 -19.29751,26.50523 -29.23733,38.67896 -32.70298,40.0528 -3.93107,1.55834 -79.335524,2.86391 -94.147352,1.63009 -9.830443,-0.81887 -11.134392,-1.23574 -15.028753,-4.80466 -3.741428,-3.42876 -4.092051,-4.22993 -2.85927,-6.5334 2.974748,-5.55837 4.131357,-5.68637 57.16378,-6.32632 l 50.346595,-0.60753 9.09331,-12.7582 c 21.57385,-30.26879 43.82421,-59.10481 46.57247,-60.357 7.47174,-3.40435 9.82536,3.74259 18.67622,56.7118 7.59298,45.44117 7.55848,45.27016 8.95775,44.40536 0.57978,-0.35832 8.03597,-12.11037 16.56931,-26.11567 19.1667,-31.45724 23.24259,-36.99905 27.58461,-37.50548 5.62441,-0.656 8.83716,5.75668 27.12863,54.14896 2.58918,6.84994 5.07668,12.45443 5.52778,12.45443 0.45112,0 4.09863,-5.6089 8.10558,-12.46423 4.00696,-6.85533 8.48844,-13.55338 9.95884,-14.88457 2.5724,-2.32883 4.7574,-2.43581 57.79318,-2.82957 l 55.11968,-0.40924 8.7605,-12.34896 c 13.83232,-19.49833 39.35438,-53.27575 43.53,-57.61021 6.51734,-6.76526 10.52512,-4.69506 13.96393,7.21301 1.09739,3.80008 5.11056,25.63001 8.91817,48.51097 3.80761,22.88095 7.4697,41.64299 8.13798,41.69343 0.66829,0.0504 8.63421,-12.30272 17.70204,-27.45146 20.16709,-33.69113 22.03776,-36.24784 26.52141,-36.24784 6.00925,0 8.74632,4.86812 20.36181,36.21533 9.5672,25.8194 10.84619,28.45677 13.55307,27.94751 1.14449,-0.21532 4.48029,-4.9228 7.52388,-10.61773 3.00729,-5.62701 6.86367,-11.25442 8.56975,-12.50538 4.88123,-3.57911 16.05078,-4.525 55.8288,-4.72785 20.38274,-0.10393 45.62223,-0.52502 56.08776,-0.93573 l 19.02821,-0.74675 20.77785,-28.77374 c 28.86276,-39.96993 35.02379,-46.3788 40.13695,-41.75146 3.37457,3.05396 5.75021,13.31137 12.88042,55.61469 6.82356,40.48393 7.43082,43.46458 8.8552,43.46458 0.47246,0 5.42105,-7.51822 10.99689,-16.70716 26.32823,-43.38881 28.86188,-46.83443 34.00039,-46.23865 4.28115,0.49637 9.5233,10.55579 20.77153,39.85954 4.74565,12.36331 9.13613,23.29891 9.75663,24.30134 1.60247,2.58881 3.48646,0.42837 10.06609,-11.54313 9.11519,-16.58491 10.08336,-16.83952 61.62385,-16.20636 34.82566,0.42782 37.381,0.80301 40.10238,5.88795 1.05651,1.97411 0.55523,3.1708 -2.91502,6.95879 l -4.19093,4.57468 -38.3267,0.39499 -38.32669,0.39498 -2.27739,3.85775 c -1.25258,2.12176 -5.18852,9.19472 -8.74655,15.71767 -7.26172,13.31296 -13.72007,21.55442 -16.89092,21.55442 -5.27405,0 -10.49662,-9.86521 -23.31632,-44.04345 -4.95004,-13.19717 -9.49326,-23.83168 -10.09604,-23.63225 -0.60277,0.19943 -9.10869,13.93811 -18.90202,30.53041 -19.63252,33.26228 -24.19269,39.57542 -28.58651,39.57542 -6.34916,0 -8.77079,-6.31073 -13.52154,-35.23694 -8.14727,-49.60673 -11.2153,-67.04349 -11.9205,-67.74869 -1.29984,-1.29983 -5.47735,3.67726 -25.00141,29.78672 -12.08362,16.15939 -20.13998,25.83083 -22.47874,26.98515 -3.03211,1.49654 -13.91499,1.87713 -64.70554,2.26289 l -61.06034,0.46375 -6.85856,12.32679 c -13.99475,25.15256 -20.45554,31.87257 -25.9032,26.94251 -2.37258,-2.14716 -9.76515,-19.38226 -20.73159,-48.33382 -3.48065,-9.18894 -6.75376,-16.70717 -7.27359,-16.70717 -1.1367,0 -12.33166,17.25178 -23.65429,36.45201 -14.71131,24.94653 -20.87991,32.8068 -25.74619,32.8068 -5.96816,0 -7.32287,-4.70805 -15.01973,-52.19836 -5.40342,-33.33957 -8.26301,-48.4292 -9.65969,-50.97279 -0.6652,-1.21144 -6.65514,5.90461 -20.45565,24.30134 -27.40284,36.52928 -23.81799,33.10791 -35.72728,34.09802 -5.53153,0.45988 -30.32746,0.87963 -55.10206,0.93277 l -45.04474,0.0966 -6.47072,11.8469 c -12.57428,23.02158 -18.52588,30.27291 -23.76707,28.95746 -3.94699,-0.99063 -7.27543,-7.8311 -20.12473,-41.35928 -5.11116,-13.33679 -9.77415,-24.40148 -10.3622,-24.5882 -1.34673,-0.42761 -7.90668,9.49453 -22.64816,34.25612 -15.43378,25.92447 -21.89896,34.6294 -25.7193,34.6294 -1.62437,0 -3.80709,-0.85369 -4.85049,-1.89711 z"
     id="path96" /><path
     style="fill:#cccccc;stroke:none;stroke-width:1.21507"
     d="m 303.43738,957.80623 c -3.90534,-1.39868 -5.86547,-8.28948 -11.32802,-39.82324 -3.93964,-22.74244 -4.45235,-24.90887 -5.89495,-24.90887 -0.54183,0 -4.96853,5.3311 -9.83713,11.8469 -4.86859,6.5158 -11.03083,14.48009 -13.69387,17.69842 l -4.84188,5.85153 -35.96815,-0.38372 c -29.44304,-0.31411 -36.46659,-0.71382 -38.71563,-2.20332 -4.31165,-2.8555 -4.63349,-5.93227 -1.00079,-9.56724 l 3.19198,-3.19397 33.69248,-0.41511 33.69248,-0.41512 13.28652,-18.84052 c 15.31158,-21.71211 23.04067,-30.75452 26.28774,-30.75452 4.94806,0 7.58149,8.10726 13.1964,40.62654 1.9286,11.16963 3.87476,20.67664 4.32481,21.12668 1.00056,1.00056 3.29668,-2.10846 14.43118,-19.54033 9.09858,-14.24449 13.61511,-18.37414 17.46651,-15.97032 2.82637,1.76405 8.34516,12.78506 14.08701,28.13167 2.56287,6.84994 5.10041,12.45443 5.63898,12.45443 0.53857,0 2.79437,-3.50094 5.01289,-7.77987 l 4.03367,-7.77987 20.09649,-0.73957 c 11.05307,-0.40676 28.40445,-1.06281 38.55863,-1.45789 l 18.46214,-0.71831 14.59552,-19.73467 c 14.46156,-19.55351 22.76579,-28.61849 26.21677,-28.61849 4.0051,0 6.62209,8.60244 11.59343,38.10948 2.01137,11.93834 4.14668,22.58104 4.74515,23.65044 0.86987,1.55436 2.02409,0.40512 5.75436,-5.72943 13.56552,-22.30901 19.22439,-29.90213 22.57305,-30.28879 5.3632,-0.61926 8.36959,3.87511 15.49545,23.16474 3.64139,9.85723 6.91081,17.91217 7.26537,17.89986 0.35455,-0.0123 2.28498,-2.57038 4.28984,-5.6846 7.16262,-11.12597 4.91984,-10.64532 51.67068,-11.07335 l 41.169,-0.37692 16.63117,-23.1438 c 26.08062,-36.29358 28.64914,-35.68582 35.78871,8.46834 2.02054,12.49584 4.39605,23.44223 5.27893,24.32533 2.23637,2.23691 4.01136,0.24121 12.27743,-13.80404 8.94939,-15.20631 13.39727,-20.2377 17.46861,-19.7603 3.79021,0.44444 6.64741,5.18318 13.01719,21.5893 2.47376,6.37146 5.37714,13.69302 6.45195,16.27013 l 1.9542,4.68566 4.0432,-7.18824 c 2.22376,-3.95354 5.22952,-7.97581 6.67947,-8.93839 3.42111,-2.27117 50.16107,-3.23237 57.75438,-1.1877 6.07194,1.635 8.4042,5.11943 6.19261,9.25183 -2.44058,4.56028 -7.33318,5.37406 -32.30995,5.37406 h -23.49202 l -3.22159,6.3791 c -4.02764,7.97518 -9.82268,16.48455 -13.63093,20.01551 -5.4452,5.04871 -9.38669,0.0319 -19.06641,-24.26825 -3.12791,-7.85237 -6.3137,-14.2767 -7.07952,-14.2763 -0.76584,4e-4 -5.46349,6.69846 -10.43924,14.88457 -9.84124,16.19082 -16.27856,25.26322 -19.01942,26.80484 -3.10784,1.74804 -6.28673,-0.34644 -8.34919,-5.50106 -1.10728,-2.76734 -3.90127,-16.27952 -6.20887,-30.02707 -4.57884,-27.27832 -5.02314,-29.24828 -6.59677,-29.24828 -1.11907,0 -7.77917,8.47624 -17.4244,22.17583 -9.07776,12.8936 -6.96549,12.39454 -54.25368,12.8186 l -40.70474,0.36503 -4.86027,9.2846 c -5.23984,10.00971 -12.39894,18.53941 -15.5604,18.53941 -3.53809,0 -6.68824,-4.94393 -13.06724,-20.5081 -8.63861,-21.07741 -8.12802,-20.24075 -10.84934,-17.77798 -1.22324,1.10701 -5.10732,6.75687 -8.63129,12.55524 -10.4096,17.12804 -15.58204,24.39378 -18.92521,26.58431 -3.06312,2.00703 -3.22433,1.97371 -5.98642,-1.23742 -3.60827,-4.19487 -4.34716,-7.05992 -9.59723,-37.21419 -2.37864,-13.66197 -4.57044,-25.08558 -4.87064,-25.38579 -1.05813,-1.05812 -4.26388,2.59879 -15.73767,17.95255 l -11.58976,15.50893 -10.0286,0.78068 c -5.51574,0.42937 -22.4296,0.78395 -37.58636,0.78795 l -27.55775,0.007 -5.20231,9.76368 c -6.0173,11.29328 -11.85085,18.18285 -15.39579,18.18285 -3.86349,0 -6.52229,-4.44777 -14.09157,-23.57319 -3.86134,-9.75649 -7.49035,-17.73908 -8.06447,-17.73908 -0.57413,0 -5.7223,7.79162 -11.44039,17.3147 -13.07482,21.77526 -17.75847,27.15359 -22.24652,25.54621 z"
     id="path135" /><path
     style="fill:#cccccc;stroke-width:1.21507"
     d="m 191.83343,811.00309 c -2.69761,-4.11708 -4.19229,-10.9979 -10.80989,-49.76372 -7.00991,-41.06391 -8.81691,-49.21021 -10.91576,-49.21021 -0.89618,0 -9.83388,10.79891 -19.86156,23.99757 -10.02769,13.19866 -20.19828,25.9962 -22.60132,28.43897 -4.31355,4.38487 -4.52736,4.4518 -16.79683,5.25853 -6.83521,0.44942 -30.022303,0.63791 -51.526872,0.41887 -37.190812,-0.37883 -39.261952,-0.51985 -42.433377,-2.88938 -5.154292,-3.85101 -6.263038,-6.22428 -3.976229,-8.51109 3.410192,-3.41019 10.071251,-3.96076 58.842087,-4.86361 l 47.848731,-0.88579 15.06275,-20.7858 c 17.65256,-24.3596 34.64344,-46.37819 38.80544,-50.28817 7.49224,-7.0386 9.51703,-1.04311 19.80863,58.65433 3.68582,21.37987 7.24804,39.41904 7.91603,40.08705 0.80937,0.80936 1.5017,0.79257 2.07526,-0.0503 0.47339,-0.69568 7.66775,-12.17349 15.98748,-25.50625 8.31973,-13.33275 16.98495,-26.84157 19.25607,-30.01959 3.9754,-5.56288 8.38977,-8.09824 11.14029,-6.39832 2.24261,1.38601 8.31929,14.49971 16.50853,35.62603 10.3806,26.77949 11.64178,29.55408 13.19884,29.03757 0.72528,-0.24059 4.65959,-5.76462 8.7429,-12.27561 4.0833,-6.51099 8.3396,-12.75435 9.45844,-13.87414 1.99606,-1.99772 22.7751,-2.75452 102.25849,-3.72435 l 11.00017,-0.13422 5.30435,-7.59416 c 2.91738,-4.1768 13.25562,-18.25638 22.97386,-31.28797 25.82477,-34.62954 29.21163,-37.7928 33.48355,-31.27303 2.49146,3.80245 4.4079,12.71641 12.16416,56.57931 3.70202,20.93546 7.20908,38.91887 7.79347,39.96312 1.28496,2.29608 4.84174,-2.76075 23.26029,-33.07013 16.22946,-26.70708 17.64781,-28.55407 21.92713,-28.55407 5.62475,0 6.96846,2.47153 20.14836,37.05953 8.79751,23.08729 10.3596,26.05699 13.46956,25.60703 1.23005,-0.17797 5.05121,-4.91558 8.84795,-10.97004 4.10548,-6.54677 8.05406,-11.36534 10.23821,-12.494 4.44401,-2.29644 33.32591,-3.81271 74.32369,-3.9019 16.10199,-0.035 34.9659,-0.42347 41.9198,-0.86321 l 12.64345,-0.79951 20.65614,-28.57262 c 21.24317,-29.38465 32.53566,-42.73236 36.1526,-42.73236 5.03446,0 7.13055,7.75973 16.05857,59.44901 6.24311,36.14484 6.92034,39.24084 8.71458,39.83892 1.49675,0.49892 3.10013,-1.85803 20.42811,-30.02912 7.19359,-11.69501 14.96986,-23.58748 17.28061,-26.4277 8.534,-10.4894 10.80984,-7.66945 27.68925,34.3091 6.63299,16.49603 10.41111,24.40926 11.7799,24.67287 1.42549,0.27452 3.96727,-2.92022 8.68731,-10.91907 8.8268,-14.95835 10.46094,-15.88465 29.51465,-16.73011 8.08593,-0.3588 26.15549,-0.37896 40.1546,-0.0448 21.64648,0.51668 25.94403,0.92972 28.73695,2.76191 4.15962,2.72878 4.1169,3.49534 -0.48703,8.73895 l -3.77107,4.29501 h -22.16076 c -12.1884,0 -29.54889,0.35433 -38.57884,0.7874 l -16.41809,0.7874 -8.77747,15.45388 c -13.1891,23.22116 -17.50653,27.52315 -22.23682,22.15722 -3.96918,-4.50253 -14.96468,-29.81292 -26.68077,-61.41609 -0.69258,-1.86816 -1.88055,-3.19866 -2.63995,-2.95667 -0.75939,0.24199 -9.58242,13.88804 -19.60672,30.32454 -21.3961,35.08247 -23.949,38.60473 -27.98036,38.60473 -6.46192,0 -8.25666,-6.34816 -17.64135,-62.39893 -4.77304,-28.50732 -6.95104,-38.88569 -8.26644,-39.39046 -2.07771,-0.79729 -2.11556,-0.75333 -23.83179,27.67031 -8.93522,11.69502 -18.2313,23.17344 -20.65795,25.50761 l -4.41209,4.24394 -49.45556,0.81187 c -27.20055,0.44653 -55.23032,0.86057 -62.28835,0.92009 l -12.83281,0.10823 -5.89074,10.63183 c -11.27207,20.34424 -19.01746,30.06758 -23.31703,29.27157 -2.92807,-0.54209 -7.72829,-10.44157 -19.34411,-39.89323 -5.14189,-13.03719 -9.8585,-24.25076 -10.48135,-24.91904 -1.78577,-1.91609 -5.4312,3.11095 -22.61816,31.19049 -8.72505,14.25471 -17.85348,28.24146 -20.28541,31.08168 -4.5213,5.28034 -8.77618,6.65712 -11.26533,3.6452 -2.17302,-2.62938 -4.80501,-14.99998 -11.05172,-51.94411 -7.46283,-44.13642 -8.42148,-48.60267 -10.43218,-48.60267 -1.81657,0 -9.42281,9.19236 -27.64884,33.41434 -7.04001,9.35601 -14.54186,18.65128 -16.67076,20.65614 l -3.87074,3.6452 -54.23962,0.74442 c -29.83178,0.40944 -54.40402,1.22961 -54.60499,1.82261 -1.26838,3.7427 -16.71627,29.46638 -20.38198,33.9399 -8.84231,10.79087 -10.62279,8.60172 -27.37366,-33.65639 -5.37969,-13.57158 -10.35189,-25.23277 -11.04933,-25.91374 -1.73209,-1.6912 -4.51369,1.96835 -16.81692,22.12475 -14.50529,23.764 -25.0177,39.86377 -27.9324,42.77847 -3.38002,3.38002 -6.88718,3.16157 -9.33991,-0.58177 z"
     id="path297" /><path
     style="fill:#cccccc;stroke-width:1.21507"
     d="m 636.24339,711.49628 c -10.38107,-3.3774 -16.48526,-9.58941 -35.17734,-35.79861 -28.69909,-40.24061 -54.94594,-70.27111 -73.5643,-84.16907 -5.25678,-3.92399 -15.45836,-10.42285 -22.67017,-14.4419 -15.15487,-8.44562 -20.90891,-12.74703 -25.52934,-19.08439 -1.82027,-2.49665 -7.18105,-15.12709 -11.91287,-28.06763 -9.71457,-26.56739 -11.15865,-29.32715 -15.34577,-29.32715 -2.34228,0 -4.48033,2.24469 -10.47571,10.99819 -12.61392,18.41681 -21.3515,23.89285 -40.82089,25.58341 l -12.58664,1.09291 -16.07289,-8.38983 c -14.82594,-7.73893 -16.82702,-8.45074 -25.79342,-9.17498 -31.78723,-2.56753 -36.44772,-4.08909 -46.78008,-15.27271 l -7.89793,-8.54863 -10.80413,-1.97777 c -13.25694,-2.42678 -16.26857,-4.76373 -23.83744,-18.49721 -2.98125,-5.40939 -5.92959,-9.83525 -6.55186,-9.83525 -0.62227,0 -0.79794,-0.33346 -0.39037,-0.74102 1.72806,-1.72807 -11.81968,-19.92378 -14.8164,-19.8996 -1.05765,0.009 -6.18138,1.37548 -11.38607,3.03767 -11.82492,3.77645 -18.48566,3.80253 -30.78707,0.12053 -13.5093,-4.04351 -20.64641,-5.332 -38.0399,-6.86754 -8.30861,-0.7335 -16.65779,-2.13581 -18.55373,-3.11623 -3.9508,-2.04304 -9.19564,-8.88586 -14.64568,-19.10788 -3.46315,-6.49544 -4.55349,-7.47471 -13.11559,-11.77966 -10.461689,-5.26003 -15.834378,-10.02967 -19.589856,-17.39102 -2.329829,-4.56684 -2.476492,-6.23644 -1.729245,-19.6856 l 0.816497,-14.69554 -7.234048,-6.29198 c -9.322024,-8.10805 -12.806203,-13.64858 -11.93992,-18.98685 0.359156,-2.21322 4.525944,-12.4985 9.25953,-22.85618 4.733586,-10.35766 8.60652,-19.89893 8.60652,-21.2028 0,-1.30388 -1.36695,-6.38968 -3.037667,-11.30179 -5.103935,-15.0062 -3.753054,-25.39625 5.765044,-44.34077 6.926407,-13.7861 14.392375,-22.69431 27.012105,-32.23018 13.19981,-9.9742 20.04315,-17.01108 33.54126,-34.48984 5.62694,-7.28634 12.9647,-15.26982 16.30614,-17.74104 6.6906,-4.94818 7.45986,-5.27747 38.88213,-16.64412 12.02917,-4.35141 23.51155,-8.73584 25.51641,-9.74318 2.00486,-1.00733 8.83961,-7.17465 15.18833,-13.70516 6.34873,-6.53051 13.23936,-12.728395 15.31251,-13.773088 2.07316,-1.044692 9.07685,-2.753498 15.56376,-3.797347 14.26528,-2.295509 16.66731,-3.258444 33.64507,-13.487751 24.87594,-14.988059 34.83629,-17.303971 54.45814,-12.662235 15.25508,3.608734 22.48378,2.942684 39.58674,-3.647509 37.01271,-14.261909 39.46541,-14.994889 50.42528,-15.06946 9.19208,-0.06254 11.56142,0.427147 21.54127,4.452089 6.16727,2.487299 13.297,4.522361 15.84385,4.522361 2.54685,0 11.99058,-2.287832 20.98606,-5.084073 14.17311,-4.405699 17.89565,-5.094742 27.89856,-5.164034 11.39868,-0.07896 11.6876,-0.0079 23.08627,5.676217 12.74022,6.353127 17.57976,7.226406 49.21021,8.87982 l 15.79587,0.825695 11.76114,6.00729 c 6.46864,3.304009 18.77119,11.189247 27.339,17.522749 11.59418,8.570644 17.28686,11.975672 22.26073,13.315085 20.85378,5.615711 23.18485,6.658401 29.61242,13.245771 3.42763,3.51284 7.87239,8.29421 9.87725,10.62527 2.97483,3.45884 5.00934,4.50207 11.06277,5.67266 15.00957,2.90246 32.09835,17.2348 35.89964,30.10897 2.12609,7.20061 4.69145,9.25359 16.34118,13.07734 17.42713,5.72005 24.57918,12.74696 24.93251,24.49625 0.27989,9.30683 1.36141,11.71986 5.96664,13.31241 19.45219,6.72688 29.98113,17.32218 32.18909,32.39199 0.66155,4.51528 2.24695,7.35682 7.69458,13.79127 12.00574,14.1805 13.08612,16.31154 13.95023,27.51711 l 0.77336,10.02877 10.34591,10.39408 c 9.64508,9.68998 10.34592,10.73486 10.34592,15.42496 0,3.06727 -1.42241,8.03761 -3.64424,12.73417 -2.00434,4.2368 -3.64468,8.26886 -3.6452,8.96012 -5.3e-4,0.69128 1.50268,2.15916 3.34047,3.26197 4.50381,2.70262 12.32419,10.44651 15.06963,14.92225 3.5158,5.73159 2.79677,10.65487 -3.22273,22.06668 -3.00729,5.70124 -5.4678,11.84288 -5.4678,13.64808 0,2.42158 1.83847,5.01943 7.01156,9.90766 8.11285,7.66611 10.00514,12.40109 9.98798,24.99243 -0.01,7.0104 -0.58645,9.36707 -3.56355,14.55757 -3.59408,6.26623 -14.17993,16.77376 -19.21875,19.07658 -2.93115,1.33958 -3.72,3.60005 -6.87057,19.68781 -3.49315,17.83704 -14.40728,35.27614 -25.41106,40.60298 -6.69414,3.24057 -15.83628,3.27926 -24.19475,0.10231 -3.51567,-1.33623 -7.04211,-2.42979 -7.83652,-2.43013 -0.80396,-3.4e-4 -1.78956,2.55842 -2.22289,5.77096 -1.98531,14.71837 -9.35542,30.01456 -22.44749,46.58836 -14.50658,18.36445 -30.3203,29.34392 -51.69475,35.89164 -9.96696,3.05323 -12.59029,3.33928 -30.93897,3.37364 l -20.0486,0.0376 -17.01093,-5.11286 c -9.35602,-2.81208 -19,-5.11908 -21.4311,-5.12666 -4.65835,-0.0146 -11.82926,4.20681 -23.29164,13.71119 l -5.84059,4.84292 12.88607,12.13626 c 14.47084,13.62881 17.59762,18.62274 21.28186,33.99039 4.30208,17.94469 2.98939,29.79627 -4.36872,39.44325 -6.21456,8.14772 -19.88661,11.85521 -30.72032,8.33055 z"
     id="path336" /></g>
</svg>
